<svg xmlns="http://www.w3.org/2000/svg" viewBox="0 0 44 44">
  <defs>
    <linearGradient id="bg" x1="0" y1="0" x2="0" y2="1">
      <stop offset="0" stop-color="#303946"/>
      <stop offset="1" stop-color="#17202b"/>
    </linearGradient>
    <linearGradient id="edge" x1="0" y1="0" x2="1" y2="1">
      <stop offset="0" stop-color="#d9bd75"/>
      <stop offset="0.45" stop-color="#566170"/>
      <stop offset="1" stop-color="#101723"/>
    </linearGradient>
    <linearGradient id="gold" x1="0" y1="0" x2="0" y2="1">
      <stop offset="0" stop-color="#ffeaa3"/>
      <stop offset=".55" stop-color="#f0bd55"/>
      <stop offset="1" stop-color="#91601d"/>
    </linearGradient>
    <linearGradient id="roof" x1="0" y1="0" x2="0" y2="1">
      <stop offset="0" stop-color="#f6d478"/>
      <stop offset="1" stop-color="#9a651f"/>
    </linearGradient>
  </defs>
  <rect x="1" y="1" width="42" height="42" rx="9" fill="url(#bg)" stroke="url(#edge)" stroke-width="1.5"/>
  <path d="M8 6h28a7 7 0 0 1 5 2.1v1.4c0 4.1-3.3 7.5-7.5 7.5H10.5C6.3 17 3 13.6 3 9.5V8.1A7 7 0 0 1 8 6Z" fill="#fff" opacity=".12"/>
  <path d="M10 17.5h24l-2.8-4.2H12.8L10 17.5Z" fill="url(#roof)" stroke="#513512" stroke-width="1.2" stroke-linejoin="round"/>
  <path d="M13 17h18v16H13Z" fill="#17202b" stroke="url(#gold)" stroke-width="2" stroke-linejoin="round"/>
  <path d="M17 32V22c0-3.1 2.1-5.2 5-5.2s5 2.1 5 5.2v10" fill="#263342" stroke="#f8d889" stroke-width="1.7"/>
  <path d="M11 21h4v12h-4ZM29 21h4v12h-4Z" fill="#263342" stroke="#f8d889" stroke-width="1.4"/>
  <path d="M12 13.5h3v3h-3ZM20.5 13.5h3v3h-3ZM29 13.5h3v3h-3Z" fill="#f8d889" opacity=".9"/>
  <path d="M22 17v15" stroke="#0c121c" stroke-width="1.2" opacity=".7"/>
</svg>
