<svg xmlns="http://www.w3.org/2000/svg" viewBox="0 0 128 128">
  <defs>
    <linearGradient id="rim" x1="0" y1="0" x2="0" y2="1">
      <stop offset="0" stop-color="#fff1a8"/>
      <stop offset="0.38" stop-color="#f0b531"/>
      <stop offset="0.74" stop-color="#9a520e"/>
      <stop offset="1" stop-color="#3a1204"/>
    </linearGradient>
    <linearGradient id="red" x1="0" y1="0" x2="0" y2="1">
      <stop offset="0" stop-color="#f23826"/>
      <stop offset="0.5" stop-color="#a70c08"/>
      <stop offset="1" stop-color="#3a0603"/>
    </linearGradient>
    <radialGradient id="shine" cx="34%" cy="18%" r="64%">
      <stop offset="0" stop-color="#ffffff" stop-opacity="0.45"/>
      <stop offset="0.35" stop-color="#ffd56d" stop-opacity="0.18"/>
      <stop offset="1" stop-color="#000000" stop-opacity="0"/>
    </radialGradient>
    <filter id="drop" x="-20%" y="-20%" width="140%" height="150%">
      <feDropShadow dx="0" dy="6" stdDeviation="3" flood-color="#160603" flood-opacity="0.55"/>
    </filter>
    <filter id="arrowShadow" x="-20%" y="-20%" width="150%" height="150%">
      <feDropShadow dx="3" dy="3" stdDeviation="0.8" flood-color="#270000" flood-opacity="0.9"/>
    </filter>
  </defs>
  <g filter="url(#drop)">
    <path d="M24 6h80c9.9 0 18 8.1 18 18v80c0 9.9-8.1 18-18 18H24c-9.9 0-18-8.1-18-18V24C6 14.1 14.1 6 24 6Z" fill="#210804"/>
    <path d="M25 11h78c7.7 0 14 6.3 14 14v78c0 7.7-6.3 14-14 14H25c-7.7 0-14-6.3-14-14V25c0-7.7 6.3-14 14-14Z" fill="url(#rim)"/>
    <path d="M28 19h72c5 0 9 4 9 9v72c0 5-4 9-9 9H28c-5 0-9-4-9-9V28c0-5 4-9 9-9Z" fill="url(#red)"/>
    <path d="M28 19h72c5 0 9 4 9 9v72c0 5-4 9-9 9H28c-5 0-9-4-9-9V28c0-5 4-9 9-9Z" fill="url(#shine)"/>
    <path d="M29 23h70c3.3 0 6 2.7 6 6v10c-17.5 8.9-59.1 8.7-82 0V29c0-3.3 2.7-6 6-6Z" fill="#fff6c4" opacity="0.16"/>
    <path d="M82 36 52 64l30 28" fill="none" stroke="#fff4bd" stroke-width="14" stroke-linecap="round" stroke-linejoin="round" filter="url(#arrowShadow)"/>
    <path d="M55 64h45" fill="none" stroke="#fff4bd" stroke-width="14" stroke-linecap="round" filter="url(#arrowShadow)"/>
    <path d="M82 36 52 64l30 28" fill="none" stroke="#7a1808" stroke-width="3" stroke-linecap="round" stroke-linejoin="round" opacity="0.35"/>
    <path d="M55 64h45" fill="none" stroke="#7a1808" stroke-width="3" stroke-linecap="round" opacity="0.35"/>
  </g>
</svg>
